<?xml version="1.0" standalone="no"?>
<!DOCTYPE svg PUBLIC "-//W3C//DTD SVG 20010904//EN"
 "http://www.w3.org/TR/2001/REC-SVG-20010904/DTD/svg10.dtd">
<svg version="1.0" xmlns="http://www.w3.org/2000/svg"
 width="600.000000pt" height="600.000000pt" viewBox="0 0 600.000000 600.000000"
 preserveAspectRatio="xMidYMid meet">
<metadata>
Created by potrace 1.14, written by Peter Selinger 2001-2017
</metadata>
<g transform="translate(0.000000,600.000000) scale(0.100000,-0.100000)"
fill="#000000" stroke="none">
<path d="M570 5981 c0 -15 -10 -19 -51 -23 -28 -3 -54 -10 -58 -15 -3 -6 -23
-13 -43 -17 -23 -4 -38 -13 -38 -21 0 -8 -9 -15 -20 -15 -13 0 -20 -7 -20 -19
0 -14 -10 -21 -35 -25 -21 -4 -35 -13 -35 -22 0 -8 -8 -18 -17 -21 -21 -8 -48
-35 -56 -56 -3 -9 -13 -17 -21 -17 -9 0 -18 -14 -22 -35 -4 -25 -11 -35 -25
-35 -12 0 -19 -7 -19 -20 0 -11 -7 -20 -15 -20 -8 0 -17 -15 -21 -37 -4 -21
-11 -41 -17 -44 -5 -4 -12 -30 -15 -58 -4 -41 -8 -51 -23 -51 -19 0 -19 -57
-19 -2240 0 -2233 0 -2240 20 -2240 17 0 20 -7 20 -44 0 -25 6 -51 13 -58 8
-7 17 -30 21 -51 4 -22 13 -37 21 -37 9 0 15 -10 15 -25 0 -18 5 -25 19 -25
13 0 21 -9 26 -30 4 -17 13 -30 22 -30 8 0 17 -9 20 -19 3 -11 11 -22 19 -25
8 -3 14 -12 14 -21 0 -8 7 -15 15 -15 9 0 18 -7 21 -15 3 -8 21 -17 40 -21 24
-4 34 -12 34 -25 0 -12 7 -19 20 -19 11 0 20 -7 20 -15 0 -10 14 -17 40 -21
22 -4 40 -12 40 -19 0 -15 31 -25 77 -25 17 0 33 -6 35 -12 4 -10 89 -14 371
-16 l367 -4 0 -189 0 -189 1690 0 1690 0 0 189 0 189 367 4 c282 2 367 6 371
16 2 6 18 12 35 12 47 0 77 11 77 26 0 8 9 14 19 14 30 0 51 11 51 26 0 8 10
14 25 14 18 0 25 5 25 19 0 13 9 20 30 24 31 7 62 32 73 60 3 9 13 17 21 17 7
0 16 9 19 20 3 11 12 20 20 20 9 0 18 13 22 30 5 21 13 30 26 30 14 0 19 7 19
25 0 14 4 25 10 25 5 0 13 18 16 40 4 22 12 40 19 40 17 0 25 23 25 71 0 32 3
39 20 39 20 0 20 7 20 2240 0 2233 0 2240 -20 2240 -16 0 -20 7 -20 33 0 46
-10 77 -25 77 -7 0 -15 18 -19 40 -3 22 -10 40 -15 40 -5 0 -12 15 -15 34 -4
22 -13 36 -26 39 -11 3 -20 12 -20 21 0 9 -7 16 -15 16 -9 0 -15 9 -15 25 0
18 -5 25 -20 25 -11 0 -20 7 -20 15 0 8 -9 15 -20 15 -11 0 -20 6 -20 14 0 7
-9 16 -20 19 -11 3 -20 12 -20 21 0 11 -13 18 -40 22 -22 4 -40 12 -40 19 0
14 -22 25 -50 25 -10 0 -20 5 -22 11 -2 6 -27 14 -56 17 -42 4 -52 8 -52 23 0
19 -62 19 -2430 19 -2368 0 -2430 0 -2430 -19z m370 -1161 c0 -47 3 -60 15
-60 10 0 15 -11 15 -35 0 -28 4 -35 20 -35 13 0 20 -7 20 -20 0 -13 7 -20 20
-20 13 0 20 -7 20 -20 0 -13 7 -20 20 -20 11 0 20 -7 20 -15 0 -8 7 -15 15
-15 8 0 15 -9 15 -20 0 -17 7 -20 40 -20 33 0 40 -3 40 -20 0 -19 7 -20 110
-20 103 0 110 1 110 20 0 17 7 20 40 20 33 0 40 3 40 20 0 13 7 20 20 20 11 0
20 7 20 15 0 8 7 15 15 15 8 0 15 9 15 20 0 13 7 20 20 20 13 0 20 7 20 20 0
13 7 20 20 20 16 0 20 7 20 35 0 28 4 35 20 35 18 0 20 7 20 60 l0 60 165 0
c158 0 165 -1 165 -20 0 -13 7 -20 20 -20 20 0 20 -7 20 -1465 0 -1458 0
-1465 -20 -1465 -11 0 -20 -7 -20 -15 0 -13 -27 -15 -185 -15 -158 0 -185 2
-185 15 0 13 -44 15 -340 15 -296 0 -340 -2 -340 -15 0 -13 -27 -15 -185 -15
-158 0 -185 2 -185 15 0 8 -9 15 -20 15 -20 0 -20 7 -20 1465 0 1458 0 1465
20 1465 13 0 20 7 20 20 0 19 7 20 170 20 l170 0 0 -60z m1680 0 c0 -53 2 -60
20 -60 16 0 20 -7 20 -35 0 -28 4 -35 20 -35 13 0 20 -7 20 -20 0 -13 7 -20
20 -20 13 0 20 -7 20 -20 0 -11 7 -20 15 -20 8 0 15 -7 15 -15 0 -8 9 -15 20
-15 13 0 20 -7 20 -20 0 -17 7 -20 40 -20 33 0 40 -3 40 -20 0 -19 7 -20 110
-20 103 0 110 1 110 20 0 17 7 20 40 20 33 0 40 3 40 20 0 11 7 20 15 20 8 0
15 7 15 15 0 8 9 15 20 15 13 0 20 7 20 20 0 13 7 20 20 20 13 0 20 7 20 20 0
13 7 20 20 20 16 0 20 7 20 35 0 24 5 35 15 35 12 0 15 13 15 60 l0 60 170 0
c163 0 170 -1 170 -20 0 -13 7 -20 20 -20 20 0 20 -7 20 -1465 0 -1458 0
-1465 -20 -1465 -11 0 -20 -7 -20 -15 0 -13 -27 -15 -185 -15 -158 0 -185 2
-185 15 0 13 -44 15 -340 15 -296 0 -340 -2 -340 -15 0 -13 -27 -15 -185 -15
-158 0 -185 2 -185 15 0 8 -9 15 -20 15 -20 0 -20 7 -20 1465 0 1458 0 1465
20 1465 13 0 20 7 20 20 0 19 7 20 165 20 l165 0 0 -60z m1690 0 c0 -53 2 -60
20 -60 16 0 20 -7 20 -35 0 -28 4 -35 20 -35 17 0 20 -7 20 -40 0 -29 4 -40
15 -40 8 0 15 -7 15 -15 0 -11 11 -15 40 -15 33 0 40 -3 40 -20 0 -16 7 -20
35 -20 28 0 35 -4 35 -20 0 -19 7 -20 115 -20 108 0 115 1 115 20 0 16 7 20
35 20 28 0 35 4 35 20 0 13 7 20 20 20 11 0 20 7 20 15 0 8 9 15 20 15 13 0
20 7 20 20 0 13 7 20 20 20 13 0 20 7 20 20 0 11 7 20 15 20 10 0 15 11 15 35
0 28 4 35 20 35 18 0 20 7 20 60 l0 60 170 0 c163 0 170 -1 170 -20 0 -13 7
-20 20 -20 20 0 20 -7 20 -1465 0 -1458 0 -1465 -20 -1465 -11 0 -20 -7 -20
-15 0 -13 -28 -15 -190 -15 -162 0 -190 2 -190 15 0 13 -44 15 -335 15 -291 0
-335 -2 -335 -15 0 -13 -28 -15 -190 -15 -162 0 -190 2 -190 15 0 8 -7 15 -15
15 -13 0 -15 169 -15 1465 0 1296 2 1465 15 1465 8 0 15 9 15 20 0 19 7 20
170 20 l170 0 0 -60z m-2440 -3995 l0 -75 1125 0 1125 0 0 75 c0 68 2 75 20
75 13 0 20 -7 20 -20 0 -13 7 -20 20 -20 11 0 20 -7 20 -15 0 -8 9 -15 20 -15
13 0 20 -7 20 -20 0 -11 7 -20 15 -20 8 0 15 -9 15 -20 0 -13 7 -20 20 -20 19
0 20 -7 20 -185 l0 -185 -1310 0 -1310 0 0 185 c0 158 2 185 15 185 8 0 15 9
15 20 0 13 7 20 20 20 13 0 20 7 20 20 0 13 7 20 20 20 11 0 20 7 20 15 0 8 9
15 20 15 13 0 20 7 20 20 0 11 7 20 15 20 12 0 15 -15 15 -75z"/>
<path d="M970 3920 c0 -11 -7 -20 -15 -20 -12 0 -15 -13 -15 -55 0 -42 3 -55
15 -55 8 0 15 -9 15 -20 0 -19 7 -20 225 -20 l225 0 0 -35 c0 -24 -5 -35 -15
-35 -8 0 -15 -9 -15 -20 0 -13 -7 -20 -20 -20 -17 0 -20 -7 -20 -40 0 -33 -3
-40 -20 -40 -16 0 -20 -7 -20 -35 0 -28 -4 -35 -20 -35 -17 0 -20 -7 -20 -40
0 -29 -4 -40 -15 -40 -12 0 -15 -13 -15 -55 0 -48 -2 -55 -20 -55 -16 0 -20
-7 -20 -35 0 -28 -4 -35 -20 -35 -18 0 -20 -7 -20 -60 0 -53 -2 -60 -20 -60
-19 0 -20 -7 -20 -110 l0 -110 115 0 115 0 0 75 c0 68 2 75 20 75 18 0 20 7
20 75 0 60 3 75 15 75 12 0 15 13 15 55 0 48 2 55 20 55 17 0 20 7 20 40 0 33
3 40 20 40 18 0 20 7 20 55 0 48 2 55 20 55 16 0 20 7 20 35 0 24 5 35 15 35
11 0 15 11 15 40 0 33 3 40 20 40 16 0 20 7 20 35 0 28 4 35 20 35 13 0 20 7
20 20 0 13 7 20 20 20 19 0 20 7 20 95 l0 95 -360 0 c-353 0 -360 0 -360 -20z"/>
<path d="M2660 3920 c0 -13 -7 -20 -20 -20 -18 0 -20 -7 -20 -55 0 -48 2 -55
20 -55 13 0 20 -7 20 -20 0 -19 7 -20 225 -20 l225 0 0 -35 c0 -28 -4 -35 -20
-35 -17 0 -20 -7 -20 -40 0 -29 -4 -40 -15 -40 -8 0 -15 -9 -15 -20 0 -13 -7
-20 -20 -20 -16 0 -20 -7 -20 -35 0 -28 -4 -35 -20 -35 -18 0 -20 -7 -20 -55
0 -48 -2 -55 -20 -55 -17 0 -20 -7 -20 -40 0 -29 -4 -40 -15 -40 -10 0 -15
-11 -15 -35 0 -28 -4 -35 -20 -35 -18 0 -20 -7 -20 -75 0 -68 -2 -75 -20 -75
-19 0 -20 -7 -20 -95 l0 -95 115 0 115 0 0 75 c0 60 3 75 15 75 12 0 15 15 15
75 0 68 2 75 20 75 18 0 20 7 20 55 0 48 2 55 20 55 17 0 20 7 20 40 0 33 3
40 20 40 16 0 20 7 20 35 0 24 5 35 15 35 12 0 15 13 15 55 0 48 2 55 20 55
17 0 20 7 20 40 0 33 3 40 20 40 13 0 20 7 20 20 0 13 7 20 20 20 16 0 20 7
20 35 0 24 5 35 15 35 12 0 15 17 15 95 l0 95 -355 0 c-348 0 -355 0 -355 -20z"/>
<path d="M4350 3920 c0 -13 -7 -20 -20 -20 -18 0 -20 -7 -20 -55 0 -48 2 -55
20 -55 13 0 20 -7 20 -20 0 -19 7 -20 225 -20 l225 0 0 -35 c0 -28 -4 -35 -20
-35 -17 0 -20 -7 -20 -40 0 -33 -3 -40 -20 -40 -13 0 -20 -7 -20 -20 0 -11 -7
-20 -15 -20 -10 0 -15 -11 -15 -35 0 -28 -4 -35 -20 -35 -18 0 -20 -7 -20 -55
0 -48 -2 -55 -20 -55 -17 0 -20 -7 -20 -40 0 -33 -3 -40 -20 -40 -18 0 -20 -7
-20 -55 0 -42 -3 -55 -15 -55 -12 0 -15 -13 -15 -55 0 -48 -2 -55 -20 -55 -19
0 -20 -7 -20 -95 l0 -95 110 0 110 0 0 75 c0 68 2 75 20 75 18 0 20 7 20 75 0
68 2 75 20 75 18 0 20 7 20 55 0 48 2 55 20 55 17 0 20 7 20 40 0 29 4 40 15
40 10 0 15 11 15 35 0 28 4 35 20 35 17 0 20 7 20 40 0 33 3 40 20 40 18 0 20
7 20 55 0 48 2 55 20 55 13 0 20 7 20 20 0 11 7 20 15 20 10 0 15 11 15 35 0
28 4 35 20 35 19 0 20 7 20 95 l0 95 -355 0 c-348 0 -355 0 -355 -20z"/>
</g>
</svg>
